<svg width="899" height="973" viewBox="0 0 899 973" fill="none" xmlns="http://www.w3.org/2000/svg">
<path d="M515.06 116.644C427.546 32.4439 383.787 -9.65553 341.508 3.24516C299.229 16.1458 286.433 75.5024 260.83 194.219L254.211 224.931C246.934 258.667 243.301 275.533 233.673 288.868C224.046 302.203 209.517 310.495 180.461 327.08L154.008 342.179C51.7669 400.54 0.643368 429.721 0.396758 475.72C0.155389 521.716 50.9483 554.074 152.538 618.781L178.816 635.521C207.69 653.909 222.124 663.104 231.603 677.032C241.081 690.96 244.539 708.049 251.454 742.228L257.744 773.34C282.07 893.611 294.233 953.747 336.358 969.275C378.489 984.801 422.682 945.442 511.059 866.72L533.927 846.351C559.045 823.977 571.599 812.794 587.088 808.068C602.576 803.342 619.24 805.609 652.564 810.15L682.909 814.283C800.186 830.252 858.823 838.235 885.104 801.833C911.385 765.432 887.903 708.75 840.937 595.387L828.788 566.063C815.442 533.847 808.769 517.739 808.859 500.891C808.95 484.043 815.792 468.356 829.476 436.982L841.935 408.422C890.092 298.021 914.169 242.818 888.286 204.794C862.402 166.768 803.698 171.1 686.288 179.762L655.913 182.003C622.548 184.465 605.865 185.696 590.438 180.007C575.006 174.318 562.57 162.355 537.698 138.429L515.06 116.644Z" fill="#3B6580"/>
</svg>
