<svg width="936" height="936" viewBox="0 0 936 936" fill="none" xmlns="http://www.w3.org/2000/svg">
<path d="M334.767 159.512C394.045 53.1706 423.687 0 468.001 0C512.315 0 541.951 53.1706 601.235 159.512L616.567 187.024C633.415 217.243 641.834 232.352 654.967 242.322C668.1 252.291 684.457 255.991 717.17 263.393L746.952 270.131C862.063 296.177 919.621 309.199 933.316 353.233C947.005 397.266 907.769 443.154 829.291 534.923L808.992 558.662C786.685 584.741 775.535 597.781 770.522 613.909C765.508 630.038 767.193 647.436 770.563 682.232L773.634 713.904C785.498 836.344 791.43 897.564 755.581 924.778C719.726 951.993 665.836 927.183 558.062 877.557L530.175 864.717C499.544 850.612 484.235 843.563 468.001 843.563C451.767 843.563 436.452 850.612 405.827 864.717L377.94 877.557C270.16 927.183 216.271 951.993 180.421 924.778C144.571 897.564 150.503 836.344 162.368 713.904L165.438 682.232C168.809 647.436 170.495 630.038 165.479 613.909C160.462 597.781 149.312 584.741 127.011 558.662L106.709 534.923C28.2324 443.154 -11.0059 397.266 2.68716 353.233C16.3808 309.199 73.9372 296.177 189.051 270.131L218.832 263.393C251.545 255.991 267.902 252.291 281.029 242.322C294.162 232.352 302.586 217.243 319.434 187.024L334.767 159.512Z" fill="#A74444"/>
</svg>
