<svg width="722" height="769" viewBox="0 0 722 769" fill="none" xmlns="http://www.w3.org/2000/svg">
<path d="M331.005 84.5667C403.95 22.0016 440.425 -9.28011 473.244 2.82312C506.062 14.9263 513.488 62.3985 528.348 157.346L532.19 181.909C536.413 208.89 538.521 222.379 545.525 233.35C552.528 244.32 563.631 251.528 585.837 265.944L606.053 279.069C684.189 329.798 723.259 355.163 721.374 391.514C719.486 427.864 677.895 451.131 594.71 497.66L573.193 509.697C549.55 522.919 537.731 529.53 529.613 540.106C521.495 550.681 517.991 564.026 510.983 590.716L504.607 615.01C479.952 708.929 467.624 755.889 433.642 766.252C399.655 776.614 366.521 743.521 300.258 677.333L283.112 660.206C264.28 641.395 254.867 631.993 242.845 627.559C230.822 623.125 217.554 624.163 191.022 626.244L166.862 628.137C73.4864 635.452 26.8009 639.107 7.68362 609.161C-11.4336 579.215 9.68032 535.496 51.9091 448.058L62.8328 425.44C74.8332 400.592 80.8337 388.167 81.5237 374.853C82.2137 361.538 77.5175 348.836 68.1247 323.431L59.5727 300.304C26.5182 210.907 9.99174 166.206 32.1593 137.336C54.3275 108.465 100.51 114.54 192.876 126.691L216.772 129.835C243.02 133.288 256.145 135.015 268.59 131.218C281.039 127.421 291.404 118.532 312.135 100.754L331.005 84.5667Z" fill="#A74444"/>
</svg>
