<svg width="280" height="296" viewBox="0 0 280 296" fill="none" xmlns="http://www.w3.org/2000/svg">
<g clip-path="url(#clip0_705_10202)">
<path d="M145.654 234.292L136.515 233.79L137.774 261.83L143.967 262.171L145.654 234.292Z" fill="#A0616A"/>
<path d="M136.963 252.965L140.139 254.406V256.329C140.139 256.329 140.9 254.102 145.008 253.607L145.502 255.471C145.502 255.471 147.099 257.297 146.833 260.606L145.806 269.468L142.707 269.403L142.194 263.239C142.194 263.239 141.337 261.842 137.42 268.498C137.42 268.498 135.976 270.698 129.264 268.464C128.341 268.157 127.699 267.297 127.709 266.325C127.714 265.788 127.923 265.292 128.595 265.113C130.307 264.656 131.981 265.227 133.084 263.858C134.187 262.488 136.963 252.965 136.963 252.965Z" fill="#2F2E41"/>
<path d="M122.776 260.022L113.637 259.519L114.896 287.559L121.089 287.9L122.776 260.022Z" fill="#A0616A"/>
<path d="M114.085 278.694L117.261 280.135V282.058C117.261 282.058 118.022 279.831 122.13 279.336L122.624 281.2C122.624 281.2 124.222 283.026 123.955 286.335L122.928 295.197L119.829 295.132L119.316 288.968C119.316 288.968 118.459 287.571 114.542 294.227C114.542 294.227 113.098 296.427 106.386 294.193C105.463 293.886 104.821 293.026 104.831 292.054C104.836 291.517 105.045 291.021 105.717 290.842C107.429 290.385 109.103 290.956 110.206 289.587C111.309 288.217 114.085 278.694 114.085 278.694Z" fill="#2F2E41"/>
<path d="M237.457 176.231C237.051 175.547 235.297 176.279 234.975 175.659C234.653 175.041 236.283 174.099 237.214 171.947C237.382 171.559 238.44 169.113 237.657 168.359C236.172 166.928 229.378 172.831 227 170.899C226.478 170.475 226.114 169.629 224.534 168.255C223.906 167.709 223.526 167.462 223.158 167.554C222.637 167.684 222.595 168.382 222.036 169.755C221.197 171.814 220.701 171.69 220.212 173.332C219.849 174.552 219.932 175.261 219.505 175.399C218.901 175.594 218.344 174.301 217.579 174.417C216.797 174.535 216.325 176.041 216.176 177.168C215.896 179.284 216.673 180.681 217.103 182.149C217.571 183.744 217.849 186.171 216.768 189.606L206.07 219.749C208.432 213.564 215.27 196.608 218.144 190.307C218.974 188.489 219.89 186.644 221.77 185.915C223.581 185.214 226.068 185.633 229.238 184.869C229.609 184.78 230.636 184.519 230.765 183.914C230.872 183.415 230.268 183.136 230.361 182.668C230.485 182.04 231.674 182.032 233.134 181.308C234.164 180.798 234.806 180.19 235.358 179.668C235.524 179.511 237.997 177.141 237.457 176.231Z" fill="#F2F2F2"/>
<path d="M195.366 192.1C194.913 192.101 194.767 193.173 194.369 193.153C193.973 193.132 193.981 192.06 193.193 190.982C193.051 190.788 192.156 189.563 191.56 189.73C190.429 190.046 191.366 195.084 189.732 195.693C189.373 195.827 188.853 195.762 187.723 196.141C187.273 196.291 187.043 196.407 186.982 196.614C186.895 196.907 187.226 197.129 187.738 197.8C188.507 198.805 188.302 199.013 188.968 199.727C189.461 200.257 189.833 200.421 189.778 200.67C189.699 201.023 188.904 200.923 188.74 201.332C188.573 201.75 189.175 202.416 189.686 202.815C190.643 203.563 191.553 203.584 192.398 203.797C193.316 204.027 194.587 204.591 195.961 206.113L207.669 220.061C205.314 217.117 198.966 208.868 196.702 205.64C196.049 204.708 195.408 203.726 195.593 202.593C195.772 201.502 196.694 200.402 197.234 198.626C197.297 198.418 197.466 197.838 197.206 197.601C196.992 197.404 196.681 197.62 196.478 197.439C196.206 197.197 196.545 196.612 196.611 195.686C196.657 195.033 196.544 194.543 196.447 194.122C196.418 193.994 195.968 192.097 195.366 192.1Z" fill="#F2F2F2"/>
<path d="M204.394 194.126L204.122 191.692L204.246 191.508C204.823 190.655 205.116 189.821 205.12 189.03C205.121 188.905 205.115 188.779 205.109 188.651C205.085 188.143 205.056 187.512 205.385 186.776C205.569 186.366 206.088 185.416 206.867 185.534C207.077 185.563 207.235 185.66 207.356 185.773C207.374 185.744 207.392 185.716 207.411 185.686C207.654 185.315 207.846 185.157 208.031 185.004C208.173 184.886 208.32 184.765 208.551 184.479C208.652 184.353 208.73 184.242 208.797 184.15C208.998 183.869 209.262 183.534 209.726 183.54C210.222 183.563 210.481 183.973 210.654 184.245C210.961 184.729 211.1 185.078 211.192 185.309C211.226 185.394 211.264 185.489 211.284 185.519C211.443 185.754 212.743 185.534 213.232 185.454C214.332 185.271 215.283 185.112 215.675 185.805C215.956 186.301 215.747 186.957 215.036 187.807C214.815 188.071 214.579 188.272 214.37 188.43C214.543 188.533 214.698 188.692 214.761 188.941C214.909 189.531 214.402 190.122 213.254 190.7C212.969 190.845 212.586 191.038 212.048 191.131C211.795 191.174 211.567 191.185 211.372 191.19C211.368 191.303 211.341 191.426 211.272 191.551C211.071 191.921 210.651 192.098 210.019 192.055C209.323 192.019 208.75 191.886 208.245 191.77C207.804 191.669 207.423 191.583 207.125 191.603C206.571 191.648 206.145 192.091 205.644 192.665L204.394 194.126Z" fill="#F2F2F2"/>
<path d="M205.659 179.635L203.374 180.516L203.164 180.442C202.192 180.101 201.312 180.028 200.546 180.225C200.424 180.256 200.304 180.294 200.182 180.332C199.696 180.484 199.093 180.672 198.298 180.54C197.855 180.466 196.805 180.206 196.721 179.422C196.696 179.212 196.749 179.034 196.828 178.889C196.796 178.879 196.764 178.868 196.729 178.857C196.31 178.716 196.108 178.571 195.913 178.431C195.763 178.323 195.609 178.211 195.273 178.061C195.126 177.995 194.999 177.947 194.892 177.907C194.569 177.783 194.179 177.613 194.067 177.163C193.963 176.677 194.294 176.322 194.513 176.086C194.904 175.666 195.206 175.443 195.407 175.295C195.48 175.241 195.562 175.18 195.586 175.154C195.773 174.94 195.23 173.739 195.029 173.285C194.573 172.268 194.178 171.388 194.749 170.833C195.158 170.436 195.845 170.471 196.847 170.944C197.159 171.091 197.413 171.268 197.619 171.43C197.675 171.236 197.789 171.046 198.014 170.922C198.547 170.629 199.248 170.97 200.098 171.933C200.31 172.172 200.594 172.494 200.82 172.991C200.926 173.225 200.995 173.443 201.05 173.63C201.16 173.605 201.285 173.6 201.424 173.634C201.833 173.735 202.11 174.097 202.23 174.719C202.371 175.401 202.388 175.989 202.403 176.507C202.417 176.96 202.431 177.349 202.526 177.633C202.71 178.157 203.246 178.458 203.929 178.796L205.659 179.635Z" fill="#F2F2F2"/>
<path d="M204.394 172.464L204.122 170.03L204.246 169.846C204.823 168.992 205.116 168.159 205.12 167.368C205.121 167.242 205.115 167.117 205.109 166.989C205.085 166.481 205.056 165.85 205.385 165.114C205.569 164.704 206.088 163.754 206.867 163.872C207.077 163.901 207.235 163.998 207.356 164.11C207.374 164.082 207.392 164.054 207.411 164.023C207.654 163.653 207.846 163.495 208.031 163.342C208.173 163.224 208.32 163.103 208.551 162.816C208.652 162.691 208.73 162.58 208.797 162.487C208.998 162.206 209.262 161.872 209.726 161.877C210.222 161.901 210.481 162.311 210.654 162.583C210.961 163.067 211.1 163.416 211.192 163.647C211.226 163.732 211.264 163.827 211.284 163.857C211.443 164.092 212.743 163.872 213.232 163.792C214.332 163.609 215.283 163.45 215.675 164.143C215.956 164.639 215.747 165.295 215.036 166.145C214.815 166.409 214.579 166.61 214.37 166.768C214.543 166.871 214.698 167.03 214.761 167.279C214.909 167.869 214.402 168.46 213.254 169.038C212.969 169.183 212.586 169.376 212.048 169.468C211.795 169.512 211.567 169.522 211.372 169.528C211.368 169.641 211.341 169.763 211.272 169.889C211.071 170.259 210.651 170.436 210.019 170.393C209.323 170.357 208.75 170.224 208.245 170.108C207.804 170.007 207.423 169.921 207.125 169.941C206.571 169.985 206.145 170.429 205.644 171.003L204.394 172.464Z" fill="#F2F2F2"/>
<path d="M206.885 219.709L206.375 219.389L205.78 219.458C205.77 219.402 205.738 219.275 205.689 219.077C205.423 217.989 204.612 214.677 203.935 209.461C203.462 205.82 203.195 202.077 203.14 198.334C203.084 194.585 203.262 191.746 203.404 189.465C203.512 187.745 203.642 186.106 203.77 184.51C204.111 180.247 204.432 176.219 204.193 171.76C204.14 170.765 204.029 168.693 202.819 166.488C202.117 165.209 201.149 164.074 199.944 163.115L200.693 162.172C202.024 163.232 203.094 164.49 203.874 165.91C205.216 168.354 205.337 170.612 205.396 171.697C205.639 176.234 205.314 180.301 204.97 184.606C204.843 186.196 204.712 187.827 204.605 189.54C204.464 191.8 204.288 194.614 204.343 198.315C204.397 202.013 204.662 205.711 205.128 209.306C205.796 214.456 206.596 217.718 206.859 218.79C206.999 219.362 207.028 219.482 206.885 219.709Z" fill="#F2F2F2"/>
<path d="M197.737 165.027C197.687 165.027 197.637 165.026 197.587 165.022C196.562 164.967 195.613 164.354 194.766 163.2C194.368 162.657 194.165 162.037 193.759 160.802C193.697 160.612 193.391 159.646 193.205 158.316C193.084 157.448 193.099 157.085 193.271 156.764C193.462 156.407 193.771 156.157 194.119 155.989C194.104 155.874 194.116 155.756 194.166 155.634C194.371 155.133 194.917 155.198 195.212 155.23C195.361 155.249 195.547 155.274 195.748 155.263C196.064 155.248 196.234 155.154 196.491 155.013C196.738 154.878 197.044 154.71 197.498 154.617C198.394 154.43 199.144 154.684 199.391 154.767C200.693 155.201 201.335 156.213 202.077 157.384C202.225 157.619 202.734 158.475 203.069 159.648C203.311 160.494 203.277 160.87 203.204 161.15C203.056 161.725 202.707 162.054 201.819 162.78C200.891 163.54 200.426 163.921 200.027 164.153C199.096 164.69 198.512 165.027 197.737 165.027Z" fill="#F2F2F2"/>
<path d="M70.1217 216.863L75.817 216.863L78.5262 194.895L70.1206 194.896L70.1217 216.863Z" fill="#FFB6B6"/>
<path d="M89.6343 216.734C89.8116 217.033 89.9052 217.997 89.9052 218.344C89.9052 219.411 89.0398 220.277 87.9722 220.277H70.3347C69.6065 220.277 69.016 219.686 69.016 218.958V218.224C69.016 218.224 68.1435 216.017 69.9399 213.297C69.9399 213.297 72.1725 215.427 75.5086 212.09L76.4924 210.308L83.6136 215.516L87.5609 216.002C88.4244 216.109 89.1901 215.986 89.6343 216.734Z" fill="#2F2E41"/>
<path d="M48.5109 216.863L54.2062 216.863L56.9154 194.895L48.5098 194.896L48.5109 216.863Z" fill="#FFB6B6"/>
<path d="M68.0235 216.734C68.2008 217.033 68.2944 217.997 68.2944 218.344C68.2944 219.411 67.429 220.277 66.3614 220.277H48.7239C47.9956 220.277 47.4052 219.686 47.4052 218.958V218.224C47.4052 218.224 46.5327 216.017 48.329 213.297C48.329 213.297 50.5617 215.427 53.8978 212.09L54.8815 210.308L62.0028 215.516L65.95 216.002C66.8136 216.109 67.5793 215.986 68.0235 216.734Z" fill="#2F2E41"/>
<path d="M44.3167 98.8604L37.113 115.189L46.2376 204.513L57.5233 205.234L62.0856 126.234L66.4078 205.474L79.8545 204.033L83.0442 103.442L44.3167 98.8604Z" fill="#2F2E41"/>
<path d="M72.698 33.7876L58.2435 31.1463L55.3243 34.0656L40.4746 40.2709L42.8758 86.8543C42.8758 86.8543 38.0734 90.0534 40.4746 94.4569C42.8758 98.8603 42.3955 104.143 42.3955 104.143H83.044L81.2951 77.7297L86.0975 44.1128L74.8761 38.8002L72.698 33.7876Z" fill="#CCCCCC"/>
<path d="M62.2213 88.059C66.3279 89.0393 70.1624 87.715 70.7858 85.1015C71.4093 82.488 68.5858 79.5754 64.4776 78.5953C62.842 78.1813 61.131 78.165 59.4877 78.5478L42.0358 74.6139L40.3643 82.8429L57.7463 85.8474C59.0399 86.9314 60.5745 87.6897 62.2213 88.059Z" fill="#FFB6B6"/>
<path d="M43.3562 42.6721L40.4747 40.2709C40.4747 40.2709 34.7118 43.1524 33.7513 45.5536C32.7908 47.9548 27.0279 71.0064 27.0279 71.0064C27.0279 71.0064 25.8973 83.6397 28.8638 85.247C31.8304 86.8543 50.5598 85.8938 50.5598 85.8938L52.0005 76.289L44.3166 73.4076L43.3562 42.6721Z" fill="#CCCCCC"/>
<path d="M66.3784 29.7834C73.3893 29.7834 79.0728 24.0999 79.0728 17.0891C79.0728 10.0782 73.3893 4.39471 66.3784 4.39471C59.3675 4.39471 53.6841 10.0782 53.6841 17.0891C53.6841 24.0999 59.3675 29.7834 66.3784 29.7834Z" fill="#FFB6B6"/>
<path d="M57.2738 28.3581C55.753 28.494 53.2704 24.6036 53.3811 20.836C53.4523 18.4122 51.348 17.9356 51.1916 14.8098C51.1005 12.9884 53.8983 12.4205 54.0904 10.9597C54.4386 8.31278 56.1463 6.53167 56.3595 6.31514C58.1999 4.44607 59.4988 5.05368 61.663 2.88748C62.966 1.58332 62.6321 1.22603 63.5096 0.647565C66.0422 -1.02192 70.5929 0.787483 73.3142 3.22482C74.2559 4.06823 77.766 3.14643 79.2993 5.52815C81.1058 8.33425 80.6864 14.0569 79.9118 14.8122C79.4411 15.271 78.3663 14.15 75.4532 13.4306C72.7562 12.7645 75.3004 16.0585 72.1824 15.5058C68.4953 14.8521 67.7735 13.7303 66.3926 14.4031C64.933 15.1143 63.7924 17.3166 64.1235 19.0477C64.2879 19.9067 64.7641 20.3858 64.4956 20.8226C64.0052 21.6201 63.4426 20.838 62.8136 21.6383C62.0821 22.5693 63.9 24.9575 63.5577 25.1882C63.4887 25.2346 63.2799 25.2286 61.3177 23.3415C60.5343 22.588 60.3046 22.1253 60.1513 22.1963C59.9031 22.3113 58.2767 23.8265 58.8977 25.023C59.8642 26.8851 58.6273 26.9431 58.8977 28.1966C59.1767 29.4898 58.2402 28.2717 57.2738 28.3581Z" fill="#2F2E41"/>
<path d="M54.6419 66.9243L52.7209 68.365L62.806 82.292L64.727 81.8118L54.6419 66.9243Z" fill="#3F3D56"/>
<path d="M80.5747 79.6731V103.98C80.5747 106.13 78.826 107.879 76.6764 107.879H52.3693C50.2197 107.879 48.4709 106.13 48.4709 103.98V79.6731C48.4709 77.5235 50.2197 75.7748 52.3693 75.7748H76.6764C78.826 75.7748 80.5747 77.5235 80.5747 79.6731Z" fill="white"/>
<path d="M67.7585 85.7022H59.9113C59.7135 85.7022 59.5525 85.5412 59.5525 85.3434C59.5525 85.1456 59.7135 84.9847 59.9113 84.9847H67.7585C67.9564 84.9847 68.1173 85.1456 68.1173 85.3434C68.1173 85.5412 67.9564 85.7022 67.7585 85.7022Z" fill="#3F3D56"/>
<path d="M67.7585 93.3529H59.9113C59.7135 93.3529 59.5525 93.1919 59.5525 92.9941C59.5525 92.7963 59.7135 92.6354 59.9113 92.6354H67.7585C67.9564 92.6354 68.1173 92.7963 68.1173 92.9941C68.1173 93.1919 67.9564 93.3529 67.7585 93.3529Z" fill="#3F3D56"/>
<path d="M63.8601 103.901H56.0129C55.815 103.901 55.6541 103.74 55.6541 103.543C55.6541 103.345 55.815 103.184 56.0129 103.184H63.8601C64.0579 103.184 64.2188 103.345 64.2188 103.543C64.2188 103.74 64.0579 103.901 63.8601 103.901Z" fill="#3F3D56"/>
<path d="M71.9694 89.5301H55.7004C55.5025 89.5301 55.3416 89.3691 55.3416 89.1713C55.3416 88.9735 55.5025 88.8126 55.7004 88.8126H71.9694C72.1672 88.8126 72.3281 88.9735 72.3281 89.1713C72.3281 89.3691 72.1672 89.5301 71.9694 89.5301Z" fill="#3F3D56"/>
<path d="M70.768 90.0351C67.0252 91.9886 64.9993 95.5033 66.243 97.885C67.4866 100.267 71.5282 100.613 75.2721 98.6586C76.7783 97.8983 78.0805 96.7883 79.0699 95.4215L94.8236 86.9442L90.6878 79.6362L75.5965 88.7693C73.909 88.7995 72.2533 89.2336 70.768 90.0351Z" fill="#FFB6B6"/>
<path d="M83.2161 44.5931C83.2161 44.5931 87.5383 41.7116 90.4197 49.3955C92.6929 55.4574 96.909 73.3258 98.5876 80.5991C99.0332 82.5299 98.3883 84.5469 96.9073 85.8633L94.982 87.5747L85.6173 94.5382L79.2324 85.247L86.9871 80.5715L78.1433 61.3865L83.2161 44.5931Z" fill="#CCCCCC"/>
<path d="M280 220.122C280 220.345 279.819 220.526 279.597 220.526H0V219.719H279.597C279.819 219.719 280 219.9 280 220.122Z" fill="#E6E6E6"/>
<path d="M128.5 217.934C128.602 216.92 128.459 215.898 128.084 214.951L129.666 204.427L124.636 203.821L123.573 214.561C123.042 215.43 122.726 216.413 122.653 217.428C122.433 219.966 123.565 222.137 125.18 222.276C126.795 222.416 128.282 220.471 128.5 217.934Z" fill="#A0616A"/>
<path d="M143.058 155.757L138.907 177.567L133.758 189.008L130.692 211.068L122.813 213.453L125.284 185.479C125.284 185.479 133.241 159.488 135.375 156.841C137.508 154.194 143.058 155.757 143.058 155.757Z" fill="#F0E6BC"/>
<path d="M147.056 134.934L142.057 151.24L159.253 156.512L164.251 140.205L147.056 134.934Z" fill="#2F2E41"/>
<path d="M155.859 146.318C160.702 146.318 164.628 142.392 164.628 137.549C164.628 132.706 160.702 128.779 155.859 128.779C151.016 128.779 147.089 132.706 147.089 137.549C147.089 142.392 151.016 146.318 155.859 146.318Z" fill="#A0616A"/>
<path d="M163.985 125.204C161.285 123.896 156.178 124.51 154.352 124.711C152.721 124.891 151.59 125.837 150.478 126.767C147.955 128.878 146.848 131.45 146.494 132.357C144.825 136.641 146.469 138.443 144.724 140.247C142.855 142.18 140.234 140.871 139.096 142.738C138.061 144.434 139.979 145.916 139.239 148.62C138.384 151.74 135.102 152.426 135.436 153.617C135.808 154.938 140.244 155.494 143.781 153.904C144.258 153.69 148.452 151.743 148.654 148.587C148.785 146.563 147.125 146.354 146.666 143.437C146.346 141.408 146.862 139.686 147.685 136.938C148.258 135.023 148.545 134.066 149.163 133.175C149.461 132.745 152.269 128.835 156.432 129.565C160.102 130.208 162.568 134.061 162.093 136.49C161.812 137.924 160.477 139.005 161.002 140.048C161.39 140.816 162.384 140.763 162.509 141.482C162.625 142.158 161.86 142.85 161.279 143.376C160.545 144.04 159.887 144.357 159.639 144.495C157.873 145.479 157.219 148.416 157.228 150.243C157.243 152.97 158.755 156.325 161.819 157.488C165.259 158.794 169.455 156.88 169.613 155.336C169.706 154.44 168.386 154.16 168.174 152.625C167.936 150.894 169.45 150.05 168.968 148.976C168.533 148.004 169.168 149.392 167.964 148.02C167.817 147.852 167.041 146.938 167.027 145.787C167.009 144.287 168.297 143.298 169.007 142.501C171.668 139.521 172.087 133.896 169.622 131.149C168.223 129.589 169.089 127.676 163.985 125.204Z" fill="#2F2E41"/>
<path d="M165.27 133.707C166.063 131.909 163.966 129.622 163.693 129.331C161.647 127.153 158.709 127.074 157.261 127.035C155.994 127.001 153.277 126.928 151.221 128.751C150.11 129.737 149.072 131.384 149.538 132.127C149.822 132.582 150.647 132.604 152.297 132.649C153.78 132.689 154.317 132.493 155.147 132.874C155.76 133.155 155.911 133.465 156.448 133.921C157.899 135.155 159.683 135.343 160.211 135.399C161.457 135.53 164.49 135.476 165.27 133.707Z" fill="#2F2E41"/>
<path d="M144.341 153.827L136.904 156.115L137.476 162.98L135.188 205.311L173.515 206.455L174.004 202.515L170.082 188.327L171.799 160.12L160.93 154.399L158.07 148.679L147.773 148.107L144.341 153.827Z" fill="#F0E6BC"/>
<path d="M161.216 198.16L134.902 206.169C134.902 206.169 119.01 210.716 110.429 215.293C101.849 219.869 102.868 224.022 102.868 224.022L113.737 272.645L124.034 273.217L122.637 228.49L133.758 226.974L135.474 243.351L144.627 245.639L153.779 214.177C154.437 218.121 158.088 220.844 162.055 220.342C165.368 219.922 169.412 219.279 173.229 218.326C181.809 216.182 173.229 201.02 173.229 201.02L161.216 198.16Z" fill="#2F2E41"/>
<path d="M134.044 222.472C134.044 222.472 135.76 208.743 138.62 193.298C141.481 177.853 151.777 181.857 151.777 181.857L170.083 201.306L155.21 211.031L134.044 222.472Z" fill="#2F2E41"/>
<path d="M149.569 207.639C150.32 206.951 150.896 206.094 151.248 205.139L159.444 198.35L156.1 194.545L148.146 201.84C147.171 202.133 146.28 202.655 145.548 203.363C143.692 205.108 143.088 207.48 144.199 208.661C145.309 209.842 147.714 209.384 149.569 207.639Z" fill="#A0616A"/>
<path d="M156.376 169.84L162.923 182.593L151.683 197.086L157.341 203.009L171.404 191.151L178 184.939C180.393 182.685 179.148 179.715 177.962 176.649C173.229 164.41 174.373 159.834 169.796 158.69C166.074 157.759 156.376 169.84 156.376 169.84Z" fill="#F0E6BC"/>
<path d="M126.387 193.843L127.457 190.847L147.363 194.272L164.271 185.71L165.127 188.065L146.72 198.98L126.387 193.843Z" fill="#E6E6E6"/>
<path d="M165.984 186.566L146.935 196.198L125.162 193.052L127.243 202.191L145.65 205.401L163.052 197.063L165.984 186.566Z" fill="#3F3D56"/>
<path d="M50.2385 82.7472L51.3087 79.7507L71.2139 83.1752L88.1225 74.6139L88.9787 76.9683L70.5717 87.884L50.2385 82.7472Z" fill="#E6E6E6"/>
<path d="M89.8348 75.47L70.7858 85.1015L49.0132 81.9553L51.0947 91.0945L69.5016 94.305L86.9032 85.9665L89.8348 75.47Z" fill="#3F3D56"/>
</g>
<defs>
<clipPath id="clip0_705_10202">
<rect width="280" height="295.197" fill="white"/>
</clipPath>
</defs>
</svg>
