<svg width="280" height="267" viewBox="0 0 280 267" fill="none" xmlns="http://www.w3.org/2000/svg">
<g clip-path="url(#clip0_518_4274)">
<path d="M13.7553 63.1629C13.6193 62.9625 10.231 66.3733 7.14939 65.6714C3.31046 64.797 0.502213 57.6667 2.58392 54.6169C3.96162 52.5986 7.38808 52.5037 7.31678 52.1251C7.24052 51.7201 3.55305 53.0779 1.5471 51.4561C-0.889801 49.486 -0.3806 43.4943 2.60081 40.3515C3.19733 39.7228 4.18816 38.6783 5.61111 38.5956C8.40602 38.4331 10.6002 42.1126 11.5647 43.7298C14.631 48.8717 14.8823 54.2662 15.2605 54.2157C15.6102 54.169 14.6818 49.6546 16.3644 48.7303C16.733 48.5278 17.1709 48.5307 17.6062 48.6313C17.4961 48.3464 17.4168 48.0532 17.3767 47.7517C17.1242 45.8504 18.6347 43.8293 20.4196 42.135C18.5607 43.2362 16.4595 43.9998 14.6006 43.4536C10.4479 42.2335 7.6848 34.5337 9.86799 29.807C11.3928 26.5057 15.281 24.7615 15.1528 24.5725C15.0167 24.3721 11.6285 27.7829 8.54684 27.081C4.70789 26.2066 1.89964 19.0763 3.98137 16.0265C5.35905 14.0082 8.78551 13.9133 8.71423 13.5347C8.63795 13.1297 4.95048 14.4875 2.94452 12.8657C0.507622 10.8956 1.01685 4.90391 3.99824 1.76118C4.59477 1.13235 5.58559 0.0879145 7.00856 0.00521142C9.80345 -0.157278 11.9977 3.5222 12.9621 5.13947C16.0284 10.2813 16.2797 15.6758 16.658 15.6253C17.0077 15.5786 16.0792 11.0642 17.7618 10.1399C18.8154 9.56114 20.436 10.6408 20.9393 10.9761C26.4742 14.6636 24.9404 22.6817 30.0535 31.212C31.6999 33.9586 33.3402 35.5987 34.7242 36.8393C35.3565 29.2017 33.0277 23.3387 36.5554 18.8977C36.9316 18.4241 38.1428 16.8993 39.3232 17.127C41.2082 17.4905 41.7095 22.072 42.0566 22.0092C42.4322 21.9412 41.0163 16.7297 42.3573 10.8952C42.7791 9.06001 43.7388 4.8848 46.4487 4.18202C47.8284 3.8242 49.0919 4.51431 49.8526 4.92978C53.6543 7.00631 55.9772 12.5529 54.2622 15.1756C52.8505 17.3345 48.9243 17.1735 48.976 17.5824C49.0243 17.9646 52.3146 17.0037 54.2451 18.5021C57.162 20.7661 56.6767 28.4141 53.2911 30.4241C50.5734 32.0375 46.3022 29.8307 46.2342 30.0632C46.1701 30.2824 50.406 30.7496 52.87 33.4239C53.8928 34.534 54.5945 36.0104 54.9911 37.6055C58.3467 37.8577 61.2186 40.2621 61.3262 40.0768C61.4477 39.8673 56.905 38.2935 56.201 35.2123C55.3239 31.374 60.5309 25.7513 64.1818 26.3044C66.598 26.6705 68.1694 29.7168 68.4796 29.4884C68.8115 29.244 65.9889 26.5102 66.5802 23.9994C67.2986 20.9492 72.9184 18.8095 77.0432 20.133C77.8685 20.3978 79.2393 20.8376 79.9309 22.084C81.2894 24.5319 78.9256 28.1048 77.8866 29.6752C74.5833 34.668 69.8314 37.2339 70.041 37.5529C70.2347 37.8477 73.8998 35.0533 75.4624 36.1686C76.4408 36.8669 76.1708 38.7954 76.0869 39.3944C75.1647 45.9809 67.2746 48.0761 61.8057 56.3828C57.3524 63.1471 59.2526 66.8183 55.4797 68.6518C53.8599 69.4389 51.7975 69.5911 49.6896 69.2121C51.3209 80.1361 51.7821 98.8187 51.7821 98.8187C52.2425 117.506 54.6447 132.896 55.6966 132.867C56.2805 132.849 56.0653 128.142 57.8343 120.572C59.0758 115.265 59.662 115.509 62.8855 106.04C68.001 91.0183 70.5584 83.5101 70.5638 83.4689C70.591 83.1425 70.6356 82.4833 70.8226 81.8165C67.0363 80.7571 63.3597 78.0431 62.0825 74.2342C61.0608 71.1871 61.3292 66.6607 63.8146 65.03C65.4181 63.978 67.8943 64.4625 70.1951 65.3359C68.3967 64.1386 66.7975 62.5764 66.4834 60.6646C65.7819 56.3936 71.5216 50.5646 76.7275 50.4819C80.3634 50.4241 83.6214 53.1712 83.736 52.9737C83.8575 52.7642 79.3148 51.1903 78.6108 48.1092C77.7338 44.2709 82.9408 38.6482 86.5917 39.2013C89.0078 39.5674 90.5793 42.6137 90.8895 42.3853C91.2214 42.1409 88.3987 39.4071 88.9901 36.8962C89.7084 33.8461 95.3282 31.7064 99.453 33.0299C100.278 33.2947 101.649 33.7345 102.341 34.9808C103.699 37.4287 101.335 41.0016 100.296 42.572C96.9931 47.5649 92.2412 50.1308 92.4508 50.4498C92.6445 50.7446 96.3096 47.9502 97.8722 49.0655C98.8506 49.7638 98.5806 51.6923 98.4967 52.2913C97.5745 58.8777 89.6845 60.973 84.2156 69.2797C79.7623 76.044 81.6624 79.7152 77.8895 81.5486C77.2366 81.8659 76.5104 82.0772 75.7398 82.1955L75.7397 82.1991C75.4076 87.3638 66.1035 101.243 60.9249 120.978C58.3454 130.809 56.9341 136.173 57.95 143.642C58.9536 151.046 61.7401 156.044 61.6895 159.343C61.6856 159.652 61.6587 159.937 61.6016 160.212L46.3084 158.205C46.2059 157.908 46.1253 157.604 46.0614 157.292C44.8968 151.674 49.1457 143.136 46.9866 129.365C45.3831 119.147 40.9899 110.742 38.9416 106.827C36.4247 102.011 33.451 97.4817 30.2402 90.448C28.1787 91.5833 25.8412 92.186 23.5217 91.8944C20.3329 91.4936 16.3707 89.2887 15.9793 86.342C15.7268 84.4408 17.2373 82.4197 19.0221 80.7254C17.1633 81.8266 15.0621 82.5902 13.2032 82.044C9.05047 80.8239 6.28736 73.1241 8.47054 68.3974C9.99532 65.0961 13.8836 63.3519 13.7553 63.1629ZM75.9741 68.1979C75.9853 68.1758 75.8256 68.1063 75.5474 67.9934C75.8095 68.1406 75.9628 68.2201 75.9741 68.1979ZM25.1353 38.4648C25.3816 38.2924 25.5197 38.1887 25.5046 38.169C25.4895 38.1493 25.3577 38.263 25.1353 38.4648ZM40.995 46.3481C40.7215 46.2243 40.5611 46.1565 40.5528 46.1799C40.5445 46.2033 40.7078 46.2596 40.995 46.3481ZM53.5642 55.3011C53.5754 55.279 53.4157 55.2094 53.1375 55.0965C53.3996 55.2437 53.553 55.3233 53.5642 55.3011ZM49.1647 94.8074C49.5319 94.7246 45.0656 76.6598 44.3331 67.0691C42.2135 65.6795 40.4725 63.7227 39.6727 61.3373C39.6588 61.2959 39.6461 61.2531 39.6326 61.2112C39.2088 61.1523 38.787 61.0725 38.3694 60.9741C39.8639 64.7533 40.698 67.4975 40.698 67.4975C44.5791 80.2836 48.8298 94.8839 49.1647 94.8074ZM32.4959 88.9098C33.7215 90.7893 35.1578 93.0999 37.1356 96.6343C42.2086 105.689 44.7428 110.213 45.4092 113.439C45.5844 114.301 46.5081 118.96 48.6253 124.865C49.7074 127.878 50.2484 129.385 50.6599 129.324C51.8254 129.147 51.8451 117.26 48.619 104.953C48.0661 102.858 47.6253 101.506 46.7872 98.949C45.4274 94.7779 37.8497 71.5931 31.8887 57.5281L31.8879 57.5262C30.787 56.471 29.9635 55.264 29.5592 53.9933C29.4301 53.5877 29.3575 53.2124 29.3287 52.8553C27.9029 53.3086 26.4074 53.4911 24.9191 53.304C24.0868 53.1994 23.2019 52.9708 22.3414 52.6392C24.7219 56.8576 24.6834 63.1748 28.6561 69.8024C32.8198 76.7487 36.9519 76.6286 36.9677 80.8234C36.9782 83.6093 35.1647 86.6909 32.4941 88.907L32.4959 88.9098ZM24.1072 76.7594C24.0921 76.7397 23.9602 76.8534 23.7379 77.0552C23.9841 76.8828 24.1223 76.7791 24.1072 76.7594Z" fill="#F2F2F2"/>
<path d="M184.035 58.6956C181.7 58.3065 179.159 61.1583 178.097 62.3493C175.264 65.5292 174.672 69.2287 174.444 70.7986C170.833 95.5778 169.028 107.967 176.499 113.73C183.599 119.207 196.577 117.738 199.106 112.817C200.092 110.9 199.268 108.894 197.965 105.052C195.556 97.9526 194.136 90.5529 192.027 83.3583C187.212 66.9305 187.616 59.2924 184.035 58.6956Z" fill="#2F2E41"/>
<path d="M247.747 151.181L259.109 172.627C262.01 178.102 275.735 262.435 269.632 263.498L243.193 264.375L232.223 264.951L220.947 265.113L192.998 266.04L208.697 156.205L247.747 151.181Z" fill="#2F2E41"/>
<path d="M219.773 88.2681L197.165 89.1815L195.338 96.7173L189.894 101.159C187.892 102.792 186.911 105.366 187.316 107.917L189.858 123.892C189.858 123.892 185.062 135.31 197.165 142.617L209.268 162.256L251.286 157.917C251.286 157.917 255.168 157.461 252.428 154.72C249.688 151.98 246.262 138.507 246.262 138.507C246.262 138.507 246.719 132.57 245.121 130.971C243.522 129.373 244.635 125.262 244.635 125.262L238.133 101.228C236.866 96.5445 232.617 93.292 227.765 93.292H220.555L219.773 88.2681Z" fill="#F0E6BC"/>
<path d="M45.8602 241.945L243.299 189.178C247.518 188.05 250.457 184.656 250.971 180.32C251.484 175.984 249.419 171.998 245.581 169.916L165.343 126.4C163.315 125.3 160.944 124.9 158.668 125.276L26.0448 147.14C23.2135 147.606 20.76 149.167 19.1361 151.532C17.5122 153.898 16.9387 156.748 17.5209 159.558L32.9428 233.978C33.5316 236.819 35.2157 239.222 37.6848 240.745C39.3587 241.777 41.2319 242.305 43.1384 242.305C44.0441 242.305 44.9575 242.186 45.8602 241.945Z" fill="white"/>
<path d="M45.8602 241.945L243.299 189.178C247.518 188.05 250.457 184.656 250.971 180.32C251.484 175.984 249.419 171.998 245.581 169.916L165.343 126.4C163.315 125.3 160.944 124.9 158.668 125.276L26.0448 147.14C23.2135 147.606 20.76 149.167 19.1361 151.532C17.5122 153.898 16.9387 156.748 17.5209 159.558L32.9428 233.978C33.5316 236.819 35.2157 239.222 37.6848 240.745C39.3587 241.777 41.2319 242.305 43.1384 242.305C44.0441 242.305 44.9575 242.186 45.8602 241.945ZM26.2221 148.215L158.845 126.351C160.884 126.015 163.007 126.372 164.823 127.357L245.061 170.874C248.499 172.738 250.349 176.309 249.889 180.192C249.429 184.075 246.796 187.115 243.018 188.125L45.5789 240.892C43.0688 241.563 40.4681 241.181 38.2567 239.817C36.0452 238.454 34.537 236.301 34.0097 233.757L18.5878 159.337C18.0664 156.821 18.5802 154.268 20.0345 152.149C21.4889 150.03 23.6863 148.633 26.2221 148.215Z" fill="#CCCCCC"/>
<path d="M54.906 168.702L72.5136 213.132C74.2206 217.44 79.0129 219.644 83.3941 218.136L212.813 173.607C219.959 171.148 220.758 161.361 214.105 157.776L172.455 135.338C170.643 134.362 168.543 134.062 166.53 134.493L61.1527 157.03C55.9088 158.151 52.9303 163.717 54.906 168.702Z" fill="#F2F2F2"/>
<path d="M88.8092 176.072C84.7734 176.072 81.5018 174.436 81.5018 172.418C81.5018 170.4 84.7734 168.764 88.8092 168.764C92.845 168.764 96.1167 170.4 96.1167 172.418C96.1167 174.436 92.845 176.072 88.8092 176.072Z" fill="#FF6884"/>
<path d="M95.6598 187.262C91.624 187.262 88.3523 185.626 88.3523 183.608C88.3523 181.59 91.624 179.954 95.6598 179.954C99.6956 179.954 102.967 181.59 102.967 183.608C102.967 185.626 99.6956 187.262 95.6598 187.262Z" fill="#3F3D56"/>
<path d="M134.937 178.47C123.965 178.47 115.07 174.022 115.07 168.536C115.07 163.05 123.965 158.603 134.937 158.603C145.91 158.603 154.805 163.05 154.805 168.536C154.805 174.022 145.91 178.47 134.937 178.47Z" fill="#F0E6BC"/>
<path d="M169.42 168.08C169.138 168.08 168.874 167.904 168.774 167.623C168.648 167.267 168.834 166.875 169.191 166.748L183.688 161.61C184.044 161.484 184.436 161.671 184.563 162.027C184.689 162.384 184.502 162.776 184.146 162.902L169.648 168.04C169.573 168.067 169.496 168.08 169.42 168.08Z" fill="#3F3D56"/>
<path d="M166.223 165.568C165.941 165.568 165.677 165.392 165.577 165.111C165.451 164.755 165.637 164.363 165.994 164.237L180.491 159.098C180.847 158.972 181.239 159.159 181.366 159.515C181.492 159.872 181.305 160.264 180.949 160.39L166.451 165.528C166.376 165.555 166.299 165.568 166.223 165.568Z" fill="#3F3D56"/>
<path d="M163.026 163.056C162.744 163.056 162.479 162.88 162.38 162.599C162.254 162.243 162.44 161.851 162.797 161.725L177.294 156.587C177.65 156.461 178.042 156.647 178.169 157.004C178.295 157.36 178.108 157.752 177.752 157.878L163.254 163.016C163.179 163.043 163.102 163.056 163.026 163.056Z" fill="#3F3D56"/>
<path d="M159.829 160.544C159.547 160.544 159.282 160.368 159.183 160.087C159.057 159.731 159.243 159.339 159.6 159.213L174.097 154.075C174.453 153.949 174.845 154.135 174.972 154.492C175.098 154.848 174.911 155.24 174.555 155.366L160.057 160.504C159.982 160.531 159.905 160.544 159.829 160.544Z" fill="#3F3D56"/>
<path d="M156.632 158.032C156.35 158.032 156.085 157.856 155.986 157.575C155.86 157.219 156.046 156.827 156.403 156.701L170.9 151.563C171.256 151.437 171.648 151.623 171.775 151.98C171.901 152.336 171.714 152.728 171.358 152.854L156.86 157.992C156.785 158.019 156.708 158.032 156.632 158.032Z" fill="#3F3D56"/>
<path d="M153.435 155.52C153.153 155.52 152.888 155.344 152.789 155.063C152.663 154.707 152.849 154.315 153.206 154.189L167.703 149.051C168.059 148.925 168.451 149.111 168.578 149.468C168.704 149.824 168.517 150.216 168.161 150.342L153.663 155.481C153.588 155.507 153.511 155.52 153.435 155.52Z" fill="#3F3D56"/>
<path d="M150.238 153.008C149.956 153.008 149.691 152.833 149.592 152.552C149.466 152.195 149.652 151.803 150.009 151.677L164.506 146.539C164.862 146.413 165.254 146.599 165.381 146.956C165.507 147.313 165.32 147.704 164.964 147.831L150.466 152.969C150.391 152.995 150.314 153.008 150.238 153.008Z" fill="#3F3D56"/>
<path d="M199.106 95.6898C188.765 95.6898 180.381 87.3062 180.381 76.9644C180.381 66.6227 188.765 58.239 199.106 58.239C209.448 58.239 217.832 66.6227 217.832 76.9644C217.832 87.3062 209.448 95.6898 199.106 95.6898Z" fill="#A0616A"/>
<path d="M195.224 49.1046C200.496 48.2452 203.327 47.7837 206.185 48.4195C211.911 49.6932 215.231 54.8116 217.603 58.4673C223.275 67.2094 220.711 70.8836 226.281 83.13C230.277 91.9152 232.291 91.5521 232.675 96.1465C233.481 105.791 225.277 115.438 216.462 119.211C215.873 119.463 206.712 123.296 204.13 120.124C202.238 117.799 205.581 113.796 209.611 102.997C216.697 84.0092 213.349 77.663 212.351 76.0509C211.721 75.0325 209.923 72.5009 208.926 72.8539C208.023 73.1733 208.804 75.4902 208.012 77.4211C205.89 82.5942 192.989 83.7428 182.893 79.7047C179.915 78.5138 178.088 77.7831 176.727 75.8226C172.109 69.1705 177.622 55.2301 186.318 51.1598C188.297 50.2339 190.606 49.8574 195.224 49.1046Z" fill="#2F2E41"/>
<path d="M208.613 160.671C204.058 162.981 201.559 167.203 203.029 170.101C204.5 172.999 209.383 173.476 213.939 171.164C215.771 170.266 217.362 168.942 218.578 167.302L237.75 157.271L232.851 148.374L214.47 159.208C212.429 159.221 210.42 159.722 208.613 160.671Z" fill="#A0616A"/>
<path d="M118.942 147.764C114.144 149.514 111.159 153.407 112.273 156.46C113.387 159.513 118.178 160.569 122.977 158.818C124.904 158.145 126.641 157.02 128.044 155.538L148.277 147.867L144.475 138.449L124.932 147.011C122.904 146.78 120.85 147.038 118.942 147.764Z" fill="#A0616A"/>
<path d="M230.391 97.9734C230.391 97.9734 234.274 89.9808 243.18 96.1465C252.086 102.312 273.323 127.888 273.323 127.888C273.323 127.888 284.284 137.479 278.118 140.905C271.953 144.33 227.651 164.197 227.651 164.197L216.462 156.433L256.196 136.109L233.372 118.982L230.391 97.9734Z" fill="#F0E6BC"/>
<path d="M191.57 102.769C191.57 102.769 188.854 98.8867 184.046 102.769C179.239 106.651 165.404 129.004 165.404 129.004L131.284 142.96L136.308 153.236L177.184 138.621L194.996 114.415L191.57 102.769Z" fill="#F0E6BC"/>
<path d="M193.74 95.8039C198.919 98.4483 196.536 102.508 196.709 103.34C198.392 111.435 192.239 119.821 189.858 119.325C188.461 119.034 187.726 115.554 188.031 112.931C188.426 109.53 185.155 104.146 185.519 101.741C186.413 95.842 181.02 95.7315 182.094 93.5203C182.723 92.2244 190.654 94.228 193.74 95.8039Z" fill="#2F2E41"/>
<path d="M133.71 178.995C133.688 178.995 133.667 178.994 133.645 178.991C133.346 178.956 133.133 178.685 133.168 178.386L134.396 168.016C134.413 167.872 134.487 167.741 134.601 167.652C134.714 167.562 134.858 167.522 135.003 167.539L154.509 169.885C154.808 169.921 155.021 170.192 154.985 170.491C154.949 170.79 154.678 171.004 154.379 170.967L135.414 168.686L134.25 178.514C134.217 178.791 133.982 178.995 133.71 178.995Z" fill="white"/>
<path d="M234.159 189.012C228.542 189.012 223.989 184.458 223.989 178.842C223.989 173.226 228.542 168.673 234.159 168.673C239.775 168.673 244.328 173.226 244.328 178.842C244.328 184.458 239.775 189.012 234.159 189.012Z" fill="#F0E6BC"/>
<path d="M238.779 177.256L235.51 183.004C235.316 183.346 234.757 183.371 234.57 183.004C233.293 180.511 231.49 178.304 229.268 176.594C229.033 176.413 228.913 176.128 229.072 175.849C229.204 175.618 229.585 175.474 229.818 175.653C232.191 177.48 234.144 179.785 235.51 182.454H234.57L237.838 176.706C238.185 176.097 239.126 176.645 238.779 177.256Z" fill="white"/>
</g>
<defs>
<clipPath id="clip0_518_4274">
<rect width="280" height="266.04" fill="white" transform="matrix(-1 0 0 1 280 0)"/>
</clipPath>
</defs>
</svg>
