<?xml version="1.0" encoding="UTF-8"?>
<svg id="_圖層_1" data-name="圖層 1" xmlns="http://www.w3.org/2000/svg" viewBox="0 0 800 800">
  <defs>
    <style>
      .cls-1 {
        fill: #ab9087;
      }

      .cls-2 {
        fill: #dcbba7;
      }

      .cls-3 {
        fill: #483832;
        font-family: GenSenRoundedJP-M, 'GenSenRounded JP';
        font-size: 400px;
        letter-spacing: -.12em;
      }
    </style>
  </defs>
  <path class="cls-2" d="m711.41,278.94h-75.88c10.32,13.26,16.53,29.88,16.53,47.93v162.83c0,43.06-35.25,78.23-78.23,78.23h-191.2c10.16,26.02,35.42,44.57,64.96,44.57h263.8c38.27,0,69.66-31.31,69.66-69.66v-194.22c-.08-38.36-31.39-69.66-69.66-69.66Z"/>
  <path class="cls-1" d="m621.05,446.71v-248.52c0-62.28-50.95-113.22-113.22-113.22H132.15c-62.28,0-113.22,50.95-113.22,113.22v248.52c0,59.17,46,108.02,103.91,112.81,0,0-16.79,130.43,4.11,130.43s158.13-130.01,158.13-130.01h222.67c62.36,0,113.31-50.95,113.31-113.22h0Zm-355.96,62.87l-14.6,13.76c-.25.25-28.96,27.45-61.44,56.32-7.13,6.29-13.6,12-19.56,17.21,1.59-17.54,3.27-30.72,3.27-30.89l6.71-52.29-52.54-4.36c-32.31-2.69-57.66-30.22-57.66-62.61v-248.52c0-16.7,6.55-32.4,18.55-44.32,11.92-11.92,27.7-18.55,44.32-18.55h375.68c16.7,0,32.4,6.55,44.32,18.55,11.92,11.92,18.55,27.7,18.55,44.32v248.52c0,16.7-6.55,32.4-18.55,44.32-11.92,11.92-27.7,18.55-44.32,18.55h-242.73Z"/>
  <path class="cls-1" d="m662.68,241.49c-13.6-2.77-26.94,5.96-29.71,19.56-2.77,13.6,5.96,26.94,19.56,29.71,32.73,6.71,56.49,35.84,56.49,69.24v148.56c0,34.92-26.1,65.05-60.68,70l-27.45,3.94,6.55,26.94c1.68,6.8,3.27,14.1,4.87,21.23-14.77-13.76-31.31-29.54-46.33-44.23l-7.3-7.22h-140.75c-18.38,0-30.72-1.18-39.62-7.22-11.5-7.81-27.19-4.87-35,6.63-7.81,11.5-4.87,27.19,6.63,35,21.57,14.69,46.41,15.95,67.99,15.95h120.19c8.39,8.14,22.91,22.07,37.77,35.92,13.6,12.67,24.84,22.75,33.41,30.13,16.79,14.27,24.59,19.39,34.92,19.39,8.14,0,15.7-3.69,20.82-10.16,8.48-10.83,8.56-24.42.42-66.05-1.18-6.04-2.43-11.92-3.61-17.29,45.66-17.71,77.55-62.36,77.55-112.97v-148.56c.08-57.07-40.62-106.93-96.69-118.51h0Z"/>
  <text class="cls-3" transform="translate(123.49 470.85)"><tspan x="0" y="0">Ａ</tspan></text>
</svg>