<?xml version="1.0" encoding="UTF-8"?>
<svg id="Layer_1" data-name="Layer 1" xmlns="http://www.w3.org/2000/svg" xmlns:xlink="http://www.w3.org/1999/xlink" viewBox="0 0 153.07 153.07">
  <defs>
    <style>
      .cls-1 {
        fill: none;
      }

      .cls-2 {
        fill: url(#_未命名漸層_2);
      }

      .cls-3 {
        fill: url(#_未命名漸層_4);
      }

      .cls-4 {
        fill: url(#_未命名漸層_3);
      }

      .cls-5 {
        fill: url(#_未命名漸層_5);
      }

      .cls-6 {
        fill: url(#_未命名漸層);
      }
    </style>
    <linearGradient id="_未命名漸層" data-name="未命名漸層" x1="-219.16" y1="495.23" x2="-216.07" y2="495.23" gradientTransform="translate(1618.06 27815.59) rotate(153.08) scale(51.35)" gradientUnits="userSpaceOnUse">
      <stop offset="0" stop-color="#ffb91d"/>
      <stop offset=".13" stop-color="#ffb91d"/>
      <stop offset=".88" stop-color="#ff5a12"/>
      <stop offset="1" stop-color="#ff5a12"/>
    </linearGradient>
    <linearGradient id="_未命名漸層_2" data-name="未命名漸層 2" x1="-218.08" y1="491.78" x2="-215" y2="491.78" gradientTransform="translate(-595.52 12304.81) rotate(159.54) scale(22.81)" gradientUnits="userSpaceOnUse">
      <stop offset="0" stop-color="#ffe9d2"/>
      <stop offset=".04" stop-color="#ffe9d2"/>
      <stop offset=".84" stop-color="#ffae44"/>
      <stop offset="1" stop-color="#ffae44"/>
    </linearGradient>
    <clipPath id="clippath">
      <path class="cls-1" d="m136.61,44.92c-15.08.01-40.73,6.96-68.37,19.32h0s34.86-8.07,55.39-8.07c4.41,0,8.16.37,10.76,1.28,1.88.32,3.21.94,3.9,1.86,0,.31.31.31.31.62-.59.59-.33.9-.31,1.47h0s0,0,0,.01h0v.02h0v.04h0v.02h0v.02c-.03,3.08-4.04,7.39-10.8,12.62-.31.31-.62.31-.93.62l-.31.31c-.31.31-.62.31-.93.62.31.62.62,1.54.62,2.16,16.77-11.28,26.31-21.96,24.15-27.87-.03-.07-.05-.14-.08-.21-1.48-3.26-6.26-4.81-13.39-4.82"/>
    </clipPath>
    <linearGradient id="_未命名漸層_3" data-name="未命名漸層 3" x1="-201.26" y1="503.12" x2="-198.17" y2="503.12" gradientTransform="translate(3203.89 1266.5) rotate(90) scale(6.17)" gradientUnits="userSpaceOnUse">
      <stop offset="0" stop-color="#ffb91d"/>
      <stop offset=".13" stop-color="#ffb91d"/>
      <stop offset=".88" stop-color="#ff5a12"/>
      <stop offset="1" stop-color="#ff5a12"/>
    </linearGradient>
    <linearGradient id="_未命名漸層_4" data-name="未命名漸層 4" x1="-228.72" y1="505.02" x2="-225.63" y2="505.02" gradientTransform="translate(-328.33 -8911.72) rotate(-26.82) scale(16.27)" gradientUnits="userSpaceOnUse">
      <stop offset="0" stop-color="#ffd6a9"/>
      <stop offset=".83" stop-color="#ff791f"/>
      <stop offset="1" stop-color="#ff791f"/>
    </linearGradient>
    <linearGradient id="_未命名漸層_5" data-name="未命名漸層 5" x1="-213.62" y1="492.9" x2="-210.53" y2="492.9" gradientTransform="translate(3754.5 9121.81) rotate(134.64) scale(18.17)" gradientUnits="userSpaceOnUse">
      <stop offset="0" stop-color="#ffb91d"/>
      <stop offset=".13" stop-color="#ffb91d"/>
      <stop offset=".88" stop-color="#ff5a12"/>
      <stop offset="1" stop-color="#ff5a12"/>
    </linearGradient>
  </defs>
  <path class="cls-6" d="m138.28,61.49h0s0,0,0,0m0-.03v.02-.02m0-.02v.02h0v-.02m0-.01h0m0-.02h0s0,0,0,0m0-.01h0s0,0,0,0m0-.01h0m-1.7-16.47c-15.14,0-40.89,6.96-68.34,19.32,27.64-12.35,53.3-19.31,68.37-19.32h-.03M25.98,115.93c-4.14,0-6.85-.86-7.74-2.63-1.23-2.78,2.16-7.1,8.64-12.65,2.78,5.24,6.17,9.87,10.49,13.89-4.47.92-8.32,1.39-11.4,1.39M73.27,24.04c-14.1,0-27.92,6.07-37.43,16.44-5.24,5.55-9.26,12.34-11.72,19.75-3.08,9.26-3.39,19.44-1.23,28.69,0,.31,0,.62.31.62C8.68,100.03.66,109.6,3.13,115.15c1.47,3.26,6.11,4.8,13.08,4.8,6.23,0,14.31-1.23,23.64-3.56,3.39,2.78,6.79,5.24,10.8,7.1,7.4,3.39,15.12,5.55,23.14,5.55s16.04-1.85,23.45-5.55c3.7-1.85,6.79-4.01,9.87-6.48,2.47-2.16,4.94-4.32,7.1-6.79,5.55-6.79,9.57-14.5,11.11-23.14.62-2.47.93-5.24.93-8.02v-1.23c16.47-11.28,26-21.96,23.84-27.87,2.16,5.91-7.38,16.59-24.15,27.87,0-.62-.31-1.54-.62-2.16h0c-.31-.93-.93-1.54-1.54-2.16-1.1-1.1-3.2-2.21-4.95-2.21-.21,0-.41.01-.6.05-2.16,0-4.01.62-5.55,2.16s-2.16,3.39-2.16,5.55c0,.93,0,1.54-.31,2.47-.62,3.09-1.23,6.48-2.47,9.26-1.23,2.78-2.78,5.55-4.63,8.02-2.16,2.47-4.32,4.63-6.79,6.79-2.47,1.85-5.25,3.39-8.02,4.63-3.08,1.23-6.17,2.16-9.26,2.47-1.7.15-3.32.23-4.94.23s-3.24-.08-4.94-.23c-3.08-.62-6.48-1.23-9.26-2.47-2.78-1.23-5.55-2.78-8.02-4.63-2.47-2.16-4.63-4.32-6.79-6.79-1.85-2.47-3.08-4.94-4.32-7.4,8.95-5.55,20.06-11.42,32.71-16.97,17.9-8.02,34.87-13.58,46.9-16.04,4.1-.79,7.63-1.19,10.48-1.19,1.33,0,2.51.09,3.52.26-2.6-.9-6.35-1.28-10.76-1.28-20.53,0-55.39,8.07-55.39,8.07h0c-11.42,4.94-21.91,10.49-31.16,16.04-.31-2.78-.31-5.55,0-8.64.62-3.09,1.23-6.48,2.47-9.26,1.23-2.78,2.78-5.55,4.63-8.02,2.16-2.47,4.32-4.63,6.79-6.79,2.78-1.85,5.55-3.39,8.33-4.94,3.08-1.23,6.17-2.16,9.26-2.47,2.47-.31,4.94-.31,7.4-.31,1.85,0,4.32-.93,5.55-2.16,1.23-1.23,2.47-3.7,2.16-5.55,0-2.16-.62-4.01-2.16-5.55-1.23-1.54-3.08-2.16-5.25-2.47-.99-.06-1.99-.09-2.98-.09"/>
  <path class="cls-2" d="m138.28,61.5c-.03,2.77-3.42,6.78-10.8,12.62-.31,0-.62.31-.93.62l-.31.31c-.31.31-.62.31-.93.62h0c.31-.31.62-.31.93-.62l.31-.31c.31-.31.62-.31.93-.62,6.76-5.23,10.77-9.54,10.8-12.62m0-.02h0s0,0,0,0m0-.04h0s0,0,0,0m0-.01h0s0,0,0,0m0-.01h0s0,0,0,0m0-.01s0,0,0,.01c0,0,0,0,0-.01m-3.9-3.94c1.52.53,2.64,1.24,3.28,2.16.3.59.59,1.19.62,1.78-.02-.57-.28-.88.31-1.47,0-.31-.31-.31-.31-.62-.69-.92-2.01-1.53-3.9-1.86m2.26-12.53h-.03c7.13,0,11.91,1.56,13.39,4.82.03.07.06.14.08.21-.03-.07-.05-.14-.08-.21-1.49-3.27-6.24-4.82-13.36-4.82"/>
  <path class="cls-4" d="m109.89,36.16l-5.55,3.09-3.08,5.55c-.31.62-1.23.62-1.54,0l-3.08-5.55-5.55-3.09c-.31-.31-.62-.62-.62-.93s.31-.62.62-.93l5.55-3.09,3.08-5.55c.31-.31.62-.62.93-.62s.62.31.93.62l3.08,5.55,5.55,3.09c.62.62.62,1.54-.31,1.85Z"/>
  <path class="cls-3" d="m105.88,71.03s-4.32,24.07-25.92,30.86c-4.63,1.23-8.95,1.85-12.65,1.85-7.1-.31-11.72-2.47-12.96-4.32-1.85-2.78.93-7.4,13.27-12.34,12.34-4.94,37.64-15.74,38.26-16.04Z"/>
  <path class="cls-5" d="m105.88,71.03s-4.32,24.07-25.92,30.86c-4.63,1.23-8.95,1.85-12.65,1.85-8.02-6.79,37.64-32.09,38.57-32.71Z"/>
</svg>