<svg xmlns="http://www.w3.org/2000/svg" xmlns:xlink="http://www.w3.org/1999/xlink" viewBox="0,0,256,256" width="48px" height="48px"><g transform="translate(-20.48,-20.48) scale(1.16,1.16)"><g fill="none" fill-rule="nonzero" stroke="none" stroke-width="1" stroke-linecap="butt" stroke-linejoin="miter" stroke-miterlimit="10" stroke-dasharray="" stroke-dashoffset="0" font-family="none" font-weight="none" font-size="none" text-anchor="none" style="mix-blend-mode: normal"><g transform="scale(5.33333,5.33333)"><path d="M8,24c0,9.941 8.059,18 18,18c9.941,0 18,-8.059 18,-18h-18z" fill="#dc4c2c"></path><path d="M26,6v18h18c0,-9.941 -8.059,-18 -18,-18z" fill="#f7a278"></path><path d="M26,6c-9.941,0 -18,8.059 -18,18h18z" fill="#c06346"></path><path d="M22.319,34h-16.638c-0.928,0 -1.681,-0.753 -1.681,-1.681v-16.638c0,-0.928 0.753,-1.681 1.681,-1.681h16.638c0.928,0 1.681,0.753 1.681,1.681v16.638c0,0.928 -0.753,1.681 -1.681,1.681z" fill="#9b341f"></path><path d="M14.673,19.012h-4.673v10h2.024v-3.521h2.276c1.876,0 3.397,-1.521 3.397,-3.397v-0.058c0,-1.67 -1.354,-3.024 -3.024,-3.024zM15.57,22.358c0,0.859 -0.697,1.556 -1.556,1.556h-1.99v-3.325h1.99c0.859,0 1.556,0.697 1.556,1.556z" fill="#ffffff"></path></g></g></g></svg>