<svg xmlns="http://www.w3.org/2000/svg" xmlns:xlink="http://www.w3.org/1999/xlink" viewBox="0,0,256,256" width="48px" height="48px"><g transform="translate(-20.48,-20.48) scale(1.16,1.16)"><g fill="none" fill-rule="nonzero" stroke="none" stroke-width="1" stroke-linecap="butt" stroke-linejoin="miter" stroke-miterlimit="10" stroke-dasharray="" stroke-dashoffset="0" font-family="none" font-weight="none" font-size="none" text-anchor="none" style="mix-blend-mode: normal"><g transform="scale(5.33333,5.33333)"><path d="M42.256,6h-26.512c-0.963,0 -1.744,0.781 -1.744,1.744v7.259h30v-7.259c0,-0.963 -0.781,-1.744 -1.744,-1.744z" fill="#2d92d4"></path><path d="M14,33.054v7.202c0,0.963 0.781,1.744 1.743,1.744h26.513c0.963,0 1.744,-0.781 1.744,-1.744v-7.202z" fill="#2150a9"></path><path d="M14,15.003h30v9.002h-30z" fill="#2d83d4"></path><path d="M14,24.005h30v9.05h-30z" fill="#2e70c9"></path><path d="M22.319,34h-16.638c-0.928,0 -1.681,-0.753 -1.681,-1.681v-16.638c0,-0.928 0.753,-1.681 1.681,-1.681h16.638c0.928,0 1.681,0.753 1.681,1.681v16.638c0,0.928 -0.753,1.681 -1.681,1.681z" fill="#00488d"></path><path d="M18.403,19l-1.546,7.264l-1.713,-7.264h-2.187l-1.767,7.489l-1.593,-7.489h-1.956l2.344,10h2.352l1.713,-7.689l1.714,7.689h2.251l2.344,-10z" fill="#ffffff"></path></g></g></g></svg>